<!DOCTYPE svg PUBLIC "-//W3C//DTD SVG 1.1//EN" "http://www.w3.org/Graphics/SVG/1.1/DTD/svg11.dtd">
<!-- Uploaded to: SVG Repo, www.svgrepo.com, Transformed by: SVG Repo Mixer Tools -->
<svg height="800px" width="800px" version="1.1" id="Layer_1" xmlns="http://www.w3.org/2000/svg" xmlns:xlink="http://www.w3.org/1999/xlink" viewBox="0 0 512 512" xml:space="preserve" fill="#000000">
<g id="SVGRepo_bgCarrier" stroke-width="0"/>
<g id="SVGRepo_tracerCarrier" stroke-linecap="round" stroke-linejoin="round" stroke="#CCCCCC" stroke-width="4.096"/>
<g id="SVGRepo_iconCarrier"> <path style="fill:#673ab7;" d="M387.879,213.521c-13.329-14.629-29.054-27.037-46.545-36.603 c-6.341-3.468-12.913-6.563-19.689-9.253c-3.389-1.345-6.827-2.589-10.311-3.73c-17.427-5.7-36.025-8.783-55.33-8.783 c0,0,0,0-0.002,0c-1.93,0-3.854,0.031-5.77,0.092c-3.832,0.123-7.633,0.366-11.402,0.728c-9.419,0.905-18.627,2.544-27.566,4.861 c-3.575,0.926-7.107,1.963-10.592,3.101c-1.742,0.569-3.474,1.167-5.193,1.787c-6.875,2.487-13.556,5.385-20.01,8.664 c-1.614,0.819-3.213,1.663-4.799,2.531c-13.118,7.174-25.243,15.948-36.11,26.058c-3.621,3.37-7.104,6.889-10.435,10.546 c-2.709,2.974-5.32,6.038-7.826,9.191c-2.506,3.151-4.909,6.391-7.201,9.709c-1.528,2.212-3.008,4.462-4.437,6.744 c-7.863,12.558-14.207,26.16-18.773,40.547c-0.83,2.616-1.601,5.258-2.312,7.924s-1.362,5.356-1.95,8.069 c-2.653,12.21-4.049,24.882-4.049,37.872c0,24.596,5.002,48.046,14.044,69.384c1.131,2.667,2.324,5.302,3.578,7.902 c1.882,3.899,3.901,7.72,6.052,11.456c1.434,2.49,2.926,4.943,4.475,7.357c1.548,2.414,3.154,4.788,4.814,7.12 c3.32,4.665,6.858,9.163,10.6,13.483c3.742,4.319,7.686,8.456,11.821,12.397c6.2,5.913,12.825,11.383,19.822,16.364 c3.499,2.49,7.09,4.856,10.769,7.095c12.263,7.46,25.491,13.481,39.45,17.833c2.791,0.87,5.612,1.674,8.46,2.408 c2.849,0.734,5.724,1.401,8.625,1.995C231.691,510.749,243.703,512,256,512c0.002,0,0.002,0,0.002,0 c98.382,0,178.423-80.041,178.423-178.424C434.424,287.386,416.78,245.24,387.879,213.521z"/> <path style="fill:#77757F;" d="M294.738,308.309c-0.061-1.171-0.18-2.326-0.343-3.468c-0.135-0.957-0.306-1.904-0.51-2.838 c-3.263-14.901-15.106-26.629-30.078-29.701c-0.085-0.017-0.171-0.029-0.258-0.047c-1.809-0.358-3.663-0.596-5.556-0.692 c-0.393-0.02-0.79-0.022-1.184-0.031c-0.27-0.005-0.538-0.02-0.808-0.02c0,0,0,0-0.002,0c-21.388,0-38.788,17.4-38.788,38.788 c0,12.663,6.102,23.926,15.515,31.009v31.054c0,12.853,10.42,23.273,23.273,23.273c0.002,0,0.002,0,0.002,0 c0.563,0,1.116-0.045,1.669-0.084c0.234-0.017,0.476-0.012,0.709-0.036c0.334-0.034,0.658-0.102,0.987-0.15 c11.253-1.635,19.906-11.295,19.906-23.001v-31.052c9.413-7.083,15.515-18.347,15.515-31.009 C294.788,309.634,294.771,308.97,294.738,308.309z"/> <path style="fill:#C3C3C7;" d="M170.668,176.916v-45.039c0-47.051,38.281-85.332,85.332-85.332 c47.053,0,85.333,38.281,85.333,85.332v45.039c17.492,9.565,33.216,21.974,46.545,36.603v-81.642C387.879,59.161,328.718,0,256,0 c-72.716,0-131.877,59.161-131.877,131.877v81.641C137.452,198.89,153.178,186.483,170.668,176.916z"/> <path style="fill:#57575C;" d="M256.002,271.515c0,0,0,0-0.002,0c-21.388,0-38.788,17.4-38.788,38.788 c0,12.663,6.102,23.926,15.515,31.009v31.052c0,12.853,10.42,23.273,23.273,23.273c0.002,0,0.002,0,0.002,0V271.515z"/> <g> <path style="fill:#F1CB30;" d="M321.645,167.664c-3.389-1.345-6.827-2.589-10.311-3.73 C314.816,165.075,318.256,166.319,321.645,167.664z"/> <path style="fill:#F1CB30;" d="M256.002,155.152L256.002,155.152c19.305,0,37.904,3.083,55.33,8.783 C293.905,158.234,275.305,155.152,256.002,155.152z"/> <path style="fill:#F1CB30;" d="M263.55,272.258c0.087,0.017,0.172,0.029,0.258,0.047 C263.722,272.288,263.637,272.275,263.55,272.258z"/> <path style="fill:#F1CB30;" d="M258.38,395.515c-0.233,0.023-0.475,0.02-0.709,0.036 C257.907,395.535,258.147,395.54,258.38,395.515z"/> <path style="fill:#F1CB30;" d="M293.885,302.005c0.205,0.934,0.375,1.879,0.51,2.838C294.26,303.884,294.09,302.94,293.885,302.005 z"/> <path style="fill:#F1CB30;" d="M259.367,395.365c11.253-1.635,19.906-11.295,19.906-23.001 C279.273,384.07,270.62,393.73,259.367,395.365z"/> <path style="fill:#F1CB30;" d="M256.811,271.535c0.394,0.008,0.791,0.009,1.184,0.031 C257.601,271.546,257.204,271.545,256.811,271.535z"/> </g> <path style="fill:#7e57c2;" d="M256,512c0.002,0,0.002,0,0.002,0V395.636c0,0,0,0-0.002,0c-12.853,0-23.273-10.42-23.273-23.273 v-31.052c-9.413-7.083-15.515-18.347-15.515-31.009c0-21.388,17.4-38.788,38.788-38.788c0.002,0,0.002,0,0.002,0V155.152 c0,0,0,0-0.002,0c-30.889,0-59.968,7.894-85.332,21.765c-17.49,9.567-33.216,21.974-46.545,36.602 c-28.902,31.721-46.547,73.868-46.547,120.058C77.576,431.959,157.617,512,256,512z"/> <polygon style="fill:#E69629;" points="256,155.152 256.002,155.152 256.002,155.152 "/> <path style="fill:#A9A8AE;" d="M124.123,131.879v81.641c13.329-14.628,29.055-27.037,46.545-36.602v-45.039 c0-47.053,38.281-85.333,85.332-85.333V0C183.284,0,124.123,59.161,124.123,131.879z"/> </g>
</svg>